<?xml version="1.0" standalone="no"?><!DOCTYPE svg PUBLIC "-//W3C//DTD SVG 1.1//EN" "http://www.w3.org/Graphics/SVG/1.1/DTD/svg11.dtd"><svg t="1731653359506" class="icon" viewBox="0 0 1024 1024" version="1.1" xmlns="http://www.w3.org/2000/svg" p-id="5918" xmlns:xlink="http://www.w3.org/1999/xlink" width="200" height="200"><path d="M24.192 57.6a44.8 44.8 0 0 1 44.8-38.4A493.184 493.184 0 0 1 512 304 493.184 493.184 0 0 1 955.008 19.2a44.8 44.8 0 0 1 44.8 38.4c3.328 22.848 4.992 46.08 4.992 69.76 0 255.36-197.12 464.448-448 486.912V960a44.8 44.8 0 1 1-89.6 0V614.272c-250.88-22.4-448-231.488-448-486.848 0-23.68 1.728-46.976 4.992-69.76z m532.928 466.56c201.728-22.208 358.08-191.68 358.08-396.8 0-5.376-0.128-10.752-0.32-16.128-201.728 22.272-358.08 191.744-358.08 396.8 0 5.44 0.128 10.816 0.32 16.192z m-90.24 0a403.2 403.2 0 0 0 0.32-16.128c0-205.056-156.352-374.528-358.08-396.8a403.2 403.2 0 0 0-0.32 16.192c0 205.056 156.352 374.528 358.08 396.8z" p-id="5919"></path></svg>